<svg version="1.1" id="Layer_1" xmlns="http://www.w3.org/2000/svg" xmlns:xlink="http://www.w3.org/1999/xlink" x="0px" y="0px"
	 width="100%" viewBox="0 0 267 215" enable-background="new 0 0 267 215" xml:space="preserve">
<path fill="#FDFDFD" opacity="1.000000" stroke="none" 
	d="
M163.000000,216.000000 
	C108.666664,216.000000 54.833332,216.000000 1.000000,216.000000 
	C1.000000,144.333328 1.000000,72.666664 1.000000,1.000000 
	C90.000000,1.000000 179.000000,1.000000 268.000000,1.000000 
	C268.000000,72.666664 268.000000,144.333328 268.000000,216.000000 
	C233.166672,216.000000 198.333328,216.000000 163.000000,216.000000 
M139.175110,29.030331 
	C138.782715,29.681797 138.390320,30.333263 137.072739,31.145586 
	C126.442001,31.124977 115.811256,31.104368 104.401924,31.043795 
	C102.724258,31.100979 101.046539,31.204771 99.368950,31.202663 
	C97.574768,31.200409 95.780716,31.098309 93.252121,30.982948 
	C90.868446,31.968771 88.484764,32.954594 86.069260,33.143532 
	C85.315727,32.498264 84.658646,31.523512 83.790604,31.269382 
	C81.164909,30.500679 78.457382,30.011478 76.637939,29.604750 
	C74.122978,30.237070 72.276367,31.070206 70.414680,31.105377 
	C62.481308,31.255264 54.543476,31.169115 46.568321,31.169115 
	C46.568321,33.408878 46.568321,35.088058 46.568321,37.204357 
	C50.670513,37.204357 54.315502,37.204357 57.952820,37.861626 
	C57.986282,38.298595 58.019749,38.735561 57.533131,39.655895 
	C56.315159,40.140961 54.992958,40.460236 53.901451,41.146450 
	C51.789562,42.474163 47.965065,44.242023 48.113537,45.414097 
	C48.579544,49.092827 49.556179,54.145039 52.162788,55.818668 
	C57.799545,59.437859 64.572655,61.287220 71.072342,63.938595 
	C71.072342,56.202007 71.103355,48.413342 71.054352,40.625179 
	C71.038681,38.134296 71.343582,36.250458 74.954048,37.597900 
	C74.954048,43.176331 75.295769,48.822712 74.853409,54.406982 
	C74.449150,59.510216 78.587326,60.975849 81.233932,63.671772 
	C81.298080,63.737118 82.636017,62.551979 83.783852,61.705372 
	C83.674263,61.157726 83.564674,60.610081 83.444519,59.276543 
	C83.436531,58.490685 83.428543,57.704826 83.909752,56.275494 
	C83.955078,51.229374 84.075684,46.182281 84.010529,41.137589 
	C83.982521,38.968803 84.467430,37.637932 86.728767,38.800747 
	C87.992958,41.866863 89.257156,44.932983 89.726524,48.181213 
	C88.006432,50.500122 86.286331,52.819031 84.566238,55.137939 
	C84.691048,55.738464 84.815857,56.338993 84.940666,56.939518 
	C92.898529,55.745735 98.621513,59.743908 103.800552,65.005730 
	C104.306282,64.327759 104.812012,63.649792 105.317741,62.971825 
	C101.871124,58.995335 98.424507,55.018841 95.245415,50.416836 
	C95.503792,49.330715 95.762169,48.244591 96.751633,47.023014 
	C98.269737,46.385990 99.787834,45.748966 102.081444,45.081905 
	C103.788475,44.661407 105.495499,44.240910 107.230751,44.583405 
	C106.821281,46.389153 106.411819,48.194897 105.403542,50.081562 
	C105.096710,50.498127 104.789879,50.914692 104.483047,51.331257 
	C105.012619,51.550224 105.542191,51.769192 106.405502,52.565731 
	C106.758011,53.371136 107.110519,54.176540 107.452553,55.665497 
	C108.968842,56.755943 110.485123,57.846386 112.646179,59.186375 
	C113.538216,59.042648 114.430260,58.898922 116.085091,58.628685 
	C117.150200,56.415539 118.215309,54.202393 119.724419,52.077938 
	C120.195480,51.744133 120.666550,51.410328 121.932335,50.847713 
	C123.562500,49.402512 125.192673,47.957310 127.059479,46.302326 
	C127.654549,52.464127 125.102852,59.805408 133.444305,63.542454 
	C134.114166,63.921410 134.784012,64.300362 135.453888,64.679321 
	C135.543930,64.118004 135.633972,63.556679 135.883728,62.071251 
	C135.953751,54.719749 136.023758,47.368248 136.788132,40.001713 
	C137.713318,40.022110 138.638504,40.042507 139.712128,40.979687 
	C139.720200,44.300892 140.167603,47.692932 139.645889,50.928719 
	C138.521439,57.902767 142.430969,61.436447 148.184204,64.774208 
	C148.184204,56.313004 148.298889,48.382614 148.125732,40.458519 
	C148.059799,37.442047 149.236847,36.590740 152.015259,37.695137 
	C152.350281,38.131287 152.685287,38.567440 152.849884,39.826134 
	C150.545120,46.579899 151.132904,53.234467 153.925903,59.655224 
	C155.674316,63.674614 158.968079,66.080177 163.430573,66.293755 
	C167.322372,66.480019 169.218445,64.185349 169.241928,60.453770 
	C169.273544,55.424732 165.206863,53.569160 159.046402,55.925888 
	C158.500443,55.936199 157.954468,55.946510 157.151260,55.339523 
	C157.187820,54.901138 157.224380,54.462749 157.802673,53.942047 
	C157.631195,53.285858 157.459702,52.629669 157.130432,51.456760 
	C157.915878,49.244358 158.701324,47.031956 160.289154,44.920227 
	C164.009109,44.948364 162.283829,42.949154 161.779739,40.663330 
	C163.635254,36.786514 166.675446,36.281693 170.840378,37.659813 
	C170.840378,40.251602 170.839111,42.865101 170.840622,45.478600 
	C170.845245,53.470665 170.936539,53.599510 179.017029,56.854946 
	C180.767761,54.973675 182.584137,53.021881 184.500504,50.962608 
	C185.535339,54.417374 186.371292,57.208195 187.268539,60.630424 
	C187.789490,61.273979 188.310440,61.917534 189.027817,63.225544 
	C190.809189,65.584427 192.759369,67.403023 195.981689,65.506142 
	C191.047226,56.432899 191.065262,53.773918 196.404205,48.576176 
	C197.405212,48.747932 198.406235,48.919689 199.715332,49.766994 
	C200.810013,51.178616 201.904678,52.590237 203.354233,54.679115 
	C205.569855,54.402103 207.785492,54.125092 210.740677,54.000263 
	C211.834930,53.689297 212.929199,53.378330 214.580185,52.989521 
	C215.041229,53.269020 215.502289,53.548515 216.019562,54.487606 
	C216.610794,55.014133 217.202026,55.540665 217.908676,56.772205 
	C219.923889,58.853714 221.939087,60.935223 224.144562,63.498569 
	C224.792831,63.741547 225.441116,63.984520 226.089386,64.227493 
	C226.101212,63.806770 226.113037,63.386044 226.372269,62.060047 
	C227.593307,52.894455 223.554077,43.204964 229.109238,34.451668 
	C229.310837,34.134007 229.000931,33.491745 228.996353,32.225372 
	C227.329468,31.947014 225.662582,31.668653 223.319519,31.042156 
	C221.736359,30.278273 220.153183,29.514389 218.358826,28.648605 
	C218.043518,30.047359 217.805618,31.102663 217.567734,32.157967 
	C217.342041,31.742374 217.116364,31.326782 216.890671,30.911190 
	C214.552155,31.820574 212.213623,32.729961 209.231369,34.043049 
	C207.483276,33.219494 205.735184,32.395939 203.106339,31.240164 
	C185.480484,31.217854 167.853622,31.286093 150.229782,31.086178 
	C147.210068,31.051924 144.203339,29.873653 140.795471,28.902128 
	C140.456650,28.912403 140.117813,28.922678 139.175110,29.030331 
M98.311470,170.008972 
	C97.204201,170.674225 96.096931,171.339478 94.419884,171.846024 
	C93.556381,171.060471 92.692886,170.274902 91.929291,168.497940 
	C91.705658,163.555725 91.259239,158.611481 91.304092,153.671707 
	C91.401848,142.907562 91.840393,132.145874 91.860962,121.382645 
	C91.863113,120.256721 89.998520,119.127228 88.755707,117.256386 
	C88.680283,116.480522 88.604858,115.704651 88.788834,115.069366 
	C88.788834,115.069366 89.081184,115.029671 89.507004,114.764511 
	C89.672699,114.479362 89.838387,114.194214 90.817322,113.589317 
	C92.542809,113.689255 94.268288,113.789185 96.209152,114.383148 
	C96.495331,114.590408 96.781502,114.797668 97.320168,115.912964 
	C97.336281,127.476631 97.535324,139.044312 97.281738,150.602066 
	C97.174828,155.474854 97.662773,159.722839 102.017616,163.480316 
	C102.401192,164.548340 102.784767,165.616348 103.168343,166.684372 
	C103.879860,166.241745 104.591377,165.799103 105.987892,165.587341 
	C108.576347,167.935837 111.164803,170.284332 113.753250,172.632812 
	C114.134552,172.320663 114.515846,172.008530 114.897141,171.696381 
	C114.897141,152.363922 114.897141,133.031464 115.653114,113.725273 
	C116.846054,113.634331 118.038986,113.543388 119.838470,113.506409 
	C120.216949,113.391151 120.595436,113.275894 121.901421,113.331993 
	C135.282059,113.263885 148.662689,113.195778 162.778885,113.388931 
	C165.191223,113.272278 166.621613,114.311958 165.892166,116.781067 
	C165.684372,117.484451 164.052017,117.766960 162.849747,117.732262 
	C161.877991,117.992813 160.906235,118.253372 159.496201,118.872528 
	C159.139313,118.983261 158.782425,119.093994 157.646454,119.134811 
	C157.164627,119.895416 156.682816,120.656029 156.115875,121.903679 
	C155.828644,122.295158 155.541428,122.686638 154.509171,123.021614 
	C154.011734,123.011978 153.514313,123.002350 152.509857,122.696609 
	C152.021225,122.094002 151.532578,121.491402 150.928452,120.211571 
	C150.175919,119.861351 149.423386,119.511131 148.010529,119.136772 
	C144.996002,118.719124 141.981491,118.301476 138.703278,117.469398 
	C138.112701,117.765999 137.522125,118.062599 136.309494,118.758316 
	C132.754410,121.648399 129.199341,124.538490 124.883186,127.226234 
	C121.657806,128.265472 119.100159,129.533249 122.880646,133.761612 
	C119.953690,139.200974 120.974770,144.598892 122.416428,150.308670 
	C119.026741,154.610764 122.841293,153.726929 125.542969,154.455566 
	C130.284729,160.638107 137.195892,162.336197 142.923920,158.726151 
	C147.557632,155.805771 149.951416,150.420914 148.820145,145.462555 
	C147.433044,139.382950 142.926804,136.144043 135.057129,134.924088 
	C134.961212,134.489639 134.865311,134.055191 135.169769,132.991440 
	C140.868515,130.044052 145.501709,132.417221 149.456909,140.054077 
	C150.246780,141.579208 151.929276,142.642029 153.200180,143.918030 
	C155.893890,141.180634 162.193771,142.438217 161.717377,136.018906 
	C161.632156,134.870728 163.275146,133.594299 164.120178,132.377106 
	C164.757858,133.734711 165.900024,135.075516 165.945938,136.452866 
	C166.145645,142.443726 166.001633,148.445404 166.041824,154.442749 
	C166.050613,155.751846 165.796631,157.605484 166.524277,158.280151 
	C171.793854,163.166092 177.284317,167.813782 182.704849,172.536896 
	C183.101807,172.276581 183.498749,172.016266 183.895706,171.755951 
	C183.895706,152.388962 183.895706,133.021957 183.895706,113.709274 
	C198.676529,112.631462 204.187210,115.037689 204.994354,123.624626 
	C200.108826,120.967148 195.540665,122.069206 193.639542,126.499496 
	C191.838699,130.696106 191.102005,135.779938 191.459122,140.351562 
	C191.820114,144.972870 195.366653,149.387787 200.154663,149.087982 
	C206.321487,148.701828 212.316422,148.862152 218.460403,149.141647 
	C225.106934,149.444000 225.957306,142.947266 228.214737,138.101227 
	C228.689865,138.088104 229.165009,138.074982 229.743118,138.985138 
	C229.743408,142.102859 229.571625,145.232590 229.787766,148.335266 
	C230.055054,152.172134 230.644394,155.986557 231.102661,160.497726 
	C231.984573,161.032379 232.866486,161.567017 234.387573,162.345200 
	C238.392075,165.634338 242.396576,168.923462 247.381989,173.018295 
	C247.381989,152.351135 247.381989,133.133682 247.381989,114.014420 
	C249.441605,113.613564 251.020538,113.306267 252.481644,113.021896 
	C252.481644,109.254784 252.481644,105.814026 252.481644,101.547699 
	C243.952301,103.702393 236.980820,100.223068 229.648041,95.115944 
	C229.648041,98.954643 229.648041,101.433540 228.928268,103.967056 
	C228.462662,104.086296 227.997055,104.205544 227.205917,104.230034 
	C227.205917,104.230034 227.018860,103.947289 226.897476,103.228951 
	C226.073807,102.965477 225.250122,102.702003 223.618378,102.334869 
	C220.542267,102.639381 217.466141,102.943893 213.612167,103.160561 
	C213.191132,103.943848 212.770096,104.727127 212.103699,106.130768 
	C211.087067,106.987961 210.070435,107.845154 208.707977,108.993927 
	C205.991547,102.378395 200.501053,101.767937 194.246414,101.813637 
	C167.920013,102.006020 141.591446,101.905067 115.263672,101.892578 
	C113.687683,101.891830 112.111778,101.726562 109.556671,101.582726 
	C115.318558,95.240685 121.520103,91.390617 128.609787,88.841194 
	C142.340897,83.903557 154.318848,89.366890 166.765640,95.166077 
	C166.526443,92.889297 166.211868,90.473434 164.836548,89.279808 
	C160.451126,85.473770 155.904327,81.753021 151.003113,78.659637 
	C131.532761,66.371048 110.200981,70.359398 95.943382,88.489082 
	C94.183746,90.726601 93.819420,92.259277 95.643265,94.486336 
	C97.350357,96.570854 98.738197,98.916832 100.478783,101.457550 
	C89.662392,102.721611 79.962959,102.645226 70.822556,94.282257 
	C70.822556,100.261475 70.822556,104.102898 70.822556,108.512131 
	C68.938446,107.231575 67.738953,106.372086 66.497032,105.579063 
	C53.773548,97.454620 35.794510,100.488533 28.575092,112.047310 
	C26.011593,116.151634 25.404541,120.768234 28.081493,124.814049 
	C30.486862,128.449402 34.305191,129.899490 38.982086,128.792679 
	C41.505718,128.195435 44.253674,128.546051 46.916065,129.074432 
	C47.258869,130.019760 47.601673,130.965088 47.572956,132.475388 
	C45.430954,133.677826 43.288952,134.880249 40.539669,136.048584 
	C40.369617,136.383850 40.199570,136.719131 39.919949,137.715759 
	C38.618507,139.089981 37.317062,140.464188 35.858532,142.004272 
	C39.763042,145.022232 43.302959,147.509247 46.537758,150.344391 
	C48.774139,152.304489 50.350094,152.026154 52.504883,150.230240 
	C57.555397,146.020874 62.809097,142.055313 68.725670,138.047775 
	C69.472649,138.033981 70.219627,138.020203 71.139336,138.928955 
	C71.154861,144.013092 71.007141,149.105621 71.268105,154.177124 
	C71.369255,156.142822 72.394951,158.060974 72.756477,160.539932 
	C72.474495,161.471146 72.192513,162.402374 71.114403,163.602707 
	C68.388527,163.870407 65.656227,164.087646 62.940331,164.433655 
	C62.012428,164.551895 60.790665,164.715591 60.277451,165.334625 
	C57.893658,168.209915 55.295116,171.028610 53.546356,174.282898 
	C50.226273,180.461288 52.856838,188.820877 58.879047,192.055893 
	C68.076363,196.996506 84.199593,196.632263 88.110184,181.724976 
	C88.257935,181.161758 88.815186,180.705994 89.752930,179.411453 
	C94.337357,184.808456 98.640846,189.874725 103.016922,195.026443 
	C106.497231,189.562653 104.482376,184.818481 101.535934,180.249496 
	C100.137772,178.081390 98.455177,176.096695 97.575722,174.021851 
	C98.050087,172.680969 98.524452,171.340088 99.274994,169.892212 
	C99.183617,169.928543 99.092239,169.964874 98.311470,170.008972 
M94.244881,157.175674 
	C94.411911,157.120239 94.578934,157.064819 94.745964,157.009384 
	C94.577911,156.955383 94.409866,156.901382 94.244881,157.175674 
z"/>
<path fill="#352F2F" opacity="1.000000" stroke="none" 
	d="
M120.973923,113.160629 
	C120.595436,113.275894 120.216949,113.391151 119.378006,113.136902 
	C117.645416,112.239662 116.373299,111.711937 115.101181,111.184219 
	C115.033165,112.022484 114.965157,112.860741 114.897141,113.699005 
	C114.897141,133.031464 114.897141,152.363922 114.897141,171.696381 
	C114.515846,172.008530 114.134552,172.320663 113.753250,172.632812 
	C111.164803,170.284332 108.576347,167.935837 105.541656,165.178482 
	C104.081818,164.055740 103.068207,163.341858 102.054596,162.627991 
	C97.662773,159.722839 97.174828,155.474854 97.281738,150.602066 
	C97.535324,139.044312 97.336281,127.476631 97.221535,115.128288 
	C96.746529,114.192116 96.370148,114.040619 95.993774,113.889122 
	C94.268288,113.789185 92.542809,113.689255 90.094139,113.746674 
	C89.274368,114.279236 89.177773,114.654457 89.081184,115.029671 
	C89.081184,115.029671 88.788834,115.069366 88.321075,115.183517 
	C87.568314,116.026421 87.037292,116.754288 87.034698,117.484039 
	C86.984627,131.574158 86.963371,145.664719 87.056938,159.754395 
	C87.064598,160.906769 87.941887,162.053360 88.561935,163.440338 
	C88.636093,164.031631 88.563416,164.385223 88.175980,164.932602 
	C87.721840,166.097610 87.582458,167.068832 87.443077,168.040039 
	C87.791550,167.806015 88.140022,167.571991 88.749115,167.547455 
	C89.949631,168.334381 90.889511,168.911865 91.829384,169.489349 
	C92.692886,170.274902 93.556381,171.060471 94.780083,172.209503 
	C95.727341,173.058273 96.314392,173.543579 96.901443,174.028900 
	C98.455177,176.096695 100.137772,178.081390 101.535934,180.249496 
	C104.482376,184.818481 106.497231,189.562653 103.016922,195.026443 
	C98.640846,189.874725 94.337357,184.808456 89.752930,179.411453 
	C88.815186,180.705994 88.257935,181.161758 88.110184,181.724976 
	C84.199593,196.632263 68.076363,196.996506 58.879047,192.055893 
	C52.856838,188.820877 50.226273,180.461288 53.546356,174.282898 
	C55.295116,171.028610 57.893658,168.209915 60.277451,165.334625 
	C60.790665,164.715591 62.012428,164.551895 62.940331,164.433655 
	C65.656227,164.087646 68.388527,163.870407 71.863518,163.611237 
	C73.851776,163.619751 75.090919,163.619751 77.913635,163.619751 
	C75.486244,161.832138 74.242851,160.916458 72.999458,160.000778 
	C72.394951,158.060974 71.369255,156.142822 71.268105,154.177124 
	C71.007141,149.105621 71.154861,144.013092 71.165810,138.128479 
	C70.121704,137.548996 69.051117,137.770020 67.980537,137.991043 
	C62.809097,142.055313 57.555397,146.020874 52.504883,150.230240 
	C50.350094,152.026154 48.774139,152.304489 46.537758,150.344391 
	C43.302959,147.509247 39.763042,145.022232 35.858532,142.004272 
	C37.317062,140.464188 38.618507,139.089981 40.151997,137.213043 
	C40.646671,136.511230 40.900970,136.302017 41.146950,136.082687 
	C43.288952,134.880249 45.430954,133.677826 48.067780,132.156784 
	C49.221668,131.105118 49.880733,130.372040 50.988258,129.140167 
	C49.094048,128.829178 47.997234,128.649109 46.900421,128.469040 
	C44.253674,128.546051 41.505718,128.195435 38.982086,128.792679 
	C34.305191,129.899490 30.486862,128.449402 28.081493,124.814049 
	C25.404541,120.768234 26.011593,116.151634 28.575092,112.047310 
	C35.794510,100.488533 53.773548,97.454620 66.497032,105.579063 
	C67.738953,106.372086 68.938446,107.231575 70.822556,108.512131 
	C70.822556,104.102898 70.822556,100.261475 70.822556,94.282257 
	C79.962959,102.645226 89.662392,102.721611 100.478783,101.457550 
	C98.738197,98.916832 97.350357,96.570854 95.643265,94.486336 
	C93.819420,92.259277 94.183746,90.726601 95.943382,88.489082 
	C110.200981,70.359398 131.532761,66.371048 151.003113,78.659637 
	C155.904327,81.753021 160.451126,85.473770 164.836548,89.279808 
	C166.211868,90.473434 166.526443,92.889297 166.765640,95.166077 
	C154.318848,89.366890 142.340897,83.903557 128.609787,88.841194 
	C121.520103,91.390617 115.318558,95.240685 109.556671,101.582726 
	C112.111778,101.726562 113.687683,101.891830 115.263672,101.892578 
	C141.591446,101.905067 167.920013,102.006020 194.246414,101.813637 
	C200.501053,101.767937 205.991547,102.378395 208.707977,108.993927 
	C210.070435,107.845154 211.087067,106.987961 212.510986,105.687134 
	C213.408844,104.578468 213.899445,103.913437 214.390030,103.248405 
	C217.466141,102.943893 220.542267,102.639381 224.192505,102.652481 
	C225.517380,103.295822 226.268127,103.621559 227.018860,103.947289 
	C227.018860,103.947289 227.205917,104.230034 227.489532,104.567757 
	C228.325745,105.145203 228.878342,105.384926 229.430939,105.624649 
	C229.503296,105.053917 229.575668,104.483177 229.648041,103.912437 
	C229.648041,101.433540 229.648041,98.954643 229.648041,95.115944 
	C236.980820,100.223068 243.952301,103.702393 252.481644,101.547699 
	C252.481644,105.814026 252.481644,109.254784 252.481644,113.021896 
	C251.020538,113.306267 249.441605,113.613564 247.381989,114.014420 
	C247.381989,133.133682 247.381989,152.351135 247.381989,173.018295 
	C242.396576,168.923462 238.392075,165.634338 233.985519,161.926300 
	C232.753845,160.941818 231.924225,160.376251 231.094604,159.810669 
	C230.644394,155.986557 230.055054,152.172134 229.787766,148.335266 
	C229.571625,145.232590 229.743408,142.102859 229.808624,138.066467 
	C229.876144,134.649750 230.286133,132.067062 229.789368,129.672470 
	C228.938080,125.568993 228.181259,121.178932 226.064957,117.715729 
	C224.981186,115.942230 220.722549,114.798492 218.484497,115.433739 
	C216.509232,115.994400 215.347305,119.420486 213.448761,122.117607 
	C223.045212,123.619492 227.187332,127.886345 227.205536,134.789276 
	C227.208466,135.893860 227.552170,136.997574 227.738327,138.101685 
	C225.957306,142.947266 225.106934,149.444000 218.460403,149.141647 
	C212.316422,148.862152 206.321487,148.701828 200.154663,149.087982 
	C195.366653,149.387787 191.820114,144.972870 191.459122,140.351562 
	C191.102005,135.779938 191.838699,130.696106 193.639542,126.499496 
	C195.540665,122.069206 200.108826,120.967148 204.994354,123.624626 
	C204.187210,115.037689 198.676529,112.631462 183.895706,113.709274 
	C183.895706,133.021957 183.895706,152.388962 183.895706,171.755951 
	C183.498749,172.016266 183.101807,172.276581 182.704849,172.536896 
	C177.284317,167.813782 171.793854,163.166092 166.524277,158.280151 
	C165.796631,157.605484 166.050613,155.751846 166.041824,154.442749 
	C166.001633,148.445404 166.145645,142.443726 165.945938,136.452866 
	C165.900024,135.075516 164.757858,133.734711 164.120178,132.377106 
	C163.275146,133.594299 161.632156,134.870728 161.717377,136.018906 
	C162.193771,142.438217 155.893890,141.180634 153.200180,143.918030 
	C151.929276,142.642029 150.246780,141.579208 149.456909,140.054077 
	C145.501709,132.417221 140.868515,130.044052 134.636261,133.420563 
	C133.844955,134.473389 133.587128,135.097122 133.329300,135.720840 
	C133.914948,135.677628 134.500610,135.634430 135.086258,135.591217 
	C142.926804,136.144043 147.433044,139.382950 148.820145,145.462555 
	C149.951416,150.420914 147.557632,155.805771 142.923920,158.726151 
	C137.195892,162.336197 130.284729,160.638107 125.301498,153.890640 
	C124.390312,152.212387 123.720604,151.099075 123.050896,149.985748 
	C120.974770,144.598892 119.953690,139.200974 123.134377,133.122406 
	C124.140160,130.798325 124.892212,129.113449 125.644257,127.428581 
	C129.199341,124.538490 132.754410,121.648399 136.816330,118.651627 
	C137.871094,118.324554 138.419022,118.104187 138.966965,117.883820 
	C141.981491,118.301476 144.996002,118.719124 148.473450,119.428780 
	C149.638901,120.110123 150.341415,120.499458 151.043945,120.888794 
	C151.532578,121.491402 152.021225,122.094002 152.785309,123.144424 
	C153.791901,123.420876 154.523041,123.249496 155.254196,123.078125 
	C155.541428,122.686638 155.828644,122.295158 156.443146,121.514755 
	C157.322113,120.485458 157.873825,119.845093 158.425537,119.204727 
	C158.782425,119.093994 159.139313,118.983261 160.113968,118.753815 
	C161.512131,118.504227 162.292542,118.373360 163.072937,118.242477 
	C164.052017,117.766960 165.684372,117.484451 165.892166,116.781067 
	C166.621613,114.311958 165.191223,113.272278 162.251328,112.983536 
	C161.138199,112.370903 160.552643,112.163673 159.671463,111.668945 
	C147.156158,111.272232 134.936523,111.150887 122.716591,111.092377 
	C122.150253,111.089661 121.581230,111.649605 120.999596,112.250656 
	C120.981796,112.756088 120.977859,112.958359 120.973923,113.160629 
M52.406441,121.100616 
	C60.789684,123.238968 62.548763,122.674347 67.129684,116.374763 
	C59.567898,110.572586 52.916210,112.112915 49.212475,120.718849 
	C50.056557,120.826225 50.836849,120.925484 52.406441,121.100616 
M81.905739,178.975922 
	C81.427536,178.096817 80.894974,176.431854 80.479576,176.460587 
	C76.479576,176.737289 72.874985,177.914917 70.895088,181.889862 
	C75.411705,185.076340 77.669815,184.553589 81.905739,178.975922 
z"/>
<path fill="#373333" opacity="1.000000" stroke="none" 
	d="
M187.207245,59.999016 
	C186.371292,57.208195 185.535339,54.417374 184.500504,50.962608 
	C182.584137,53.021881 180.767761,54.973675 179.017029,56.854946 
	C170.936539,53.599510 170.845245,53.470665 170.840622,45.478600 
	C170.839111,42.865101 170.840378,40.251602 170.840378,37.659813 
	C166.675446,36.281693 163.635254,36.786514 161.408295,41.198631 
	C160.520157,42.762470 160.003464,43.791012 159.486771,44.819553 
	C158.701324,47.031956 157.915878,49.244358 157.090271,52.049026 
	C157.120407,53.102318 157.190674,53.563339 157.260941,54.024364 
	C157.224380,54.462749 157.187820,54.901138 157.208801,55.937794 
	C157.629150,56.948021 157.991959,57.359978 158.354767,57.771931 
	C158.767273,57.163361 159.179779,56.554790 159.592285,55.946220 
	C165.206863,53.569160 169.273544,55.424732 169.241928,60.453770 
	C169.218445,64.185349 167.322372,66.480019 163.430573,66.293755 
	C158.968079,66.080177 155.674316,63.674614 153.925903,59.655224 
	C151.132904,53.234467 150.545120,46.579899 153.184662,39.241959 
	C152.995605,38.146992 152.471756,37.636204 151.947906,37.125420 
	C149.236847,36.590740 148.059799,37.442047 148.125732,40.458519 
	C148.298889,48.382614 148.184204,56.313004 148.184204,64.774208 
	C142.430969,61.436447 138.521439,57.902767 139.645889,50.928719 
	C140.167603,47.692932 139.720200,44.300892 139.756287,40.141800 
	C138.939651,38.533424 138.078873,37.762936 137.218094,36.992447 
	C136.843323,38.000546 136.468552,39.008648 136.093765,40.016747 
	C136.023758,47.368248 135.953751,54.719749 135.490234,62.533451 
	C134.469559,62.995914 133.842407,62.996181 133.215240,62.996445 
	C125.102852,59.805408 127.654549,52.464127 127.059479,46.302326 
	C125.192673,47.957310 123.562500,49.402512 121.238861,50.694912 
	C116.612991,44.746094 115.779869,44.404430 112.207199,47.279499 
	C113.194794,47.569843 114.095535,47.834656 115.001587,48.500015 
	C114.885490,51.457314 115.917305,52.489189 118.471794,51.565834 
	C118.478195,51.615532 118.559105,51.674664 118.311096,51.976700 
	C117.252251,54.481041 113.183113,55.304459 115.322296,58.755196 
	C114.430260,58.898922 113.538216,59.042648 112.286316,58.727203 
	C110.438637,57.172668 108.950829,56.077309 107.463028,54.981945 
	C107.110519,54.176540 106.758011,53.371136 106.325317,51.946896 
	C106.164207,50.885590 106.083275,50.443115 106.002350,50.000645 
	C106.411819,48.194897 106.821281,46.389153 107.192719,44.189125 
	C107.154686,43.794842 107.185493,43.759716 107.459335,43.737171 
	C109.234055,42.499458 110.734924,41.284286 112.594414,40.104691 
	C114.362350,39.889790 115.771660,39.639313 117.589127,39.399666 
	C119.676460,39.969955 121.355644,40.529411 123.231369,41.307243 
	C123.949654,40.931263 124.471397,40.336910 125.347412,39.565632 
	C128.654327,37.539108 127.037582,36.975006 124.913620,36.964130 
	C120.600502,36.942047 116.286293,37.131653 111.553070,37.154449 
	C109.432060,37.125790 107.730522,37.176685 105.674637,36.991951 
	C105.273705,34.865467 105.227112,32.974613 105.180519,31.083759 
	C115.811256,31.104368 126.442001,31.124977 137.829956,31.152409 
	C138.990005,31.085407 139.392868,31.011581 140.130417,30.748325 
	C140.706955,30.113882 140.948792,29.668873 141.190613,29.223864 
	C144.203339,29.873653 147.210068,31.051924 150.229782,31.086178 
	C167.853622,31.286093 185.480484,31.217854 203.622498,31.716942 
	C207.917313,36.750931 208.010529,36.774422 209.875107,33.639343 
	C212.213623,32.729961 214.552155,31.820574 216.890671,30.911190 
	C217.116364,31.326782 217.342041,31.742374 217.567734,32.157967 
	C217.805618,31.102663 218.043518,30.047359 218.358826,28.648605 
	C220.153183,29.514389 221.736359,30.278273 223.761658,31.550215 
	C225.779007,32.372437 227.354202,32.686600 228.929413,33.000759 
	C229.000931,33.491745 229.310837,34.134007 229.109238,34.451668 
	C223.554077,43.204964 227.593307,52.894455 225.886841,62.522533 
	C224.919037,62.995590 224.436661,63.006161 223.954300,63.016731 
	C221.939087,60.935223 219.923889,58.853714 217.980591,55.963871 
	C218.060944,50.995174 218.465485,46.780216 217.902863,42.698570 
	C217.640259,40.793552 215.637177,39.008591 214.083481,37.524685 
	C213.837463,37.289715 211.790848,38.940014 210.246094,39.930717 
	C217.407486,44.173405 218.135513,45.743977 215.602478,51.029781 
	C214.864120,51.745369 214.443787,52.406364 214.023453,53.067360 
	C212.929199,53.378330 211.834930,53.689297 210.308014,53.602493 
	C207.462875,52.431198 204.890472,50.278217 202.999344,54.001862 
	C201.904678,52.590237 200.810013,51.178616 199.654480,49.068741 
	C199.488434,47.894127 199.383240,47.417770 199.419525,46.613029 
	C200.500443,44.739754 201.439865,43.194859 202.782288,41.620800 
	C204.213821,41.296455 205.242355,41.001266 206.270905,40.706081 
	C206.383102,40.221706 206.495300,39.737331 206.607498,39.252953 
	C204.727280,38.563782 202.847046,37.874607 200.538986,37.107811 
	C198.086182,37.089546 196.061188,37.148899 193.580322,37.088806 
	C188.533493,36.969364 183.942535,36.969364 179.292389,36.969364 
	C179.292389,39.728897 179.292389,41.787121 179.292389,43.165939 
	C184.295441,42.090191 189.147034,41.047009 194.055878,40.363564 
	C194.994370,42.794167 195.875641,44.865025 196.502243,47.181061 
	C196.174469,47.650299 196.101379,47.874359 196.028290,48.098419 
	C191.065262,53.773918 191.047226,56.432899 195.981689,65.506142 
	C192.759369,67.403023 190.809189,65.584427 188.954117,62.538734 
	C188.322678,61.234287 187.764954,60.616653 187.207245,59.999016 
M154.468338,52.235245 
	C154.595474,51.847511 154.743515,51.464447 154.831970,51.068081 
	C154.849503,50.989597 154.638138,50.860035 154.532333,50.754036 
	C154.405411,51.141708 154.278488,51.529381 154.468338,52.235245 
M202.918976,48.479439 
	C202.774811,48.237442 202.630661,47.995445 202.486511,47.753456 
	C202.353043,48.003002 202.059311,48.316452 202.126862,48.485836 
	C202.210327,48.695202 202.593903,48.784904 202.918976,48.479439 
z"/>
<path fill="#373333" opacity="1.000000" stroke="none" 
	d="
M83.420555,56.918968 
	C83.428543,57.704826 83.436531,58.490685 83.097107,59.704498 
	C82.959755,60.738331 83.169800,61.344204 83.379852,61.950077 
	C82.636017,62.551979 81.298080,63.737118 81.233932,63.671772 
	C78.587326,60.975849 74.449150,59.510216 74.853409,54.406982 
	C75.295769,48.822712 74.954048,43.176331 74.954048,37.597900 
	C71.343582,36.250458 71.038681,38.134296 71.054352,40.625179 
	C71.103355,48.413342 71.072342,56.202007 71.072342,63.938595 
	C64.572655,61.287220 57.799545,59.437859 52.162788,55.818668 
	C49.556179,54.145039 48.579544,49.092827 48.113537,45.414097 
	C47.965065,44.242023 51.789562,42.474163 53.901451,41.146450 
	C54.992958,40.460236 56.315159,40.140961 58.130463,39.410316 
	C59.608635,38.631393 60.489479,38.098049 62.479370,36.893185 
	C60.104305,37.056732 59.032398,37.130543 57.960495,37.204357 
	C54.315502,37.204357 50.670513,37.204357 46.568321,37.204357 
	C46.568321,35.088058 46.568321,33.408878 46.568321,31.169115 
	C54.543476,31.169115 62.481308,31.255264 70.414680,31.105377 
	C72.276367,31.070206 74.122978,30.237070 76.637939,29.604750 
	C78.457382,30.011478 81.164909,30.500679 83.790604,31.269382 
	C84.658646,31.523512 85.315727,32.498264 85.946655,33.904655 
	C81.030708,37.290405 82.164169,41.860901 82.056877,46.044689 
	C82.006622,48.004494 81.544006,49.991581 81.764687,51.909176 
	C81.961578,53.619968 82.841858,55.252113 83.420555,56.918968 
M60.840389,48.867573 
	C59.436146,49.535030 58.031902,50.202488 55.912010,51.210106 
	C58.483246,53.213558 60.304626,54.632744 62.126011,56.051929 
	C62.510052,55.810509 62.894096,55.569084 63.278137,55.327663 
	C62.739601,53.126682 62.201061,50.925701 60.840389,48.867573 
z"/>
<path fill="#E2DEDD" opacity="1.000000" stroke="none" 
	d="
M227.976532,138.101456 
	C227.552170,136.997574 227.208466,135.893860 227.205536,134.789276 
	C227.187332,127.886345 223.045212,123.619492 213.448761,122.117607 
	C215.347305,119.420486 216.509232,115.994400 218.484497,115.433739 
	C220.722549,114.798492 224.981186,115.942230 226.064957,117.715729 
	C228.181259,121.178932 228.938080,125.568993 229.789368,129.672470 
	C230.286133,132.067062 229.876144,134.649750 229.757126,137.604843 
	C229.165009,138.074982 228.689865,138.088104 227.976532,138.101456 
z"/>
<path fill="#F8F5F4" opacity="1.000000" stroke="none" 
	d="
M91.879333,168.993652 
	C90.889511,168.911865 89.949631,168.334381 88.818192,167.226517 
	C88.581337,166.043686 88.536034,165.391235 88.490738,164.738800 
	C88.563416,164.385223 88.636093,164.031631 88.675934,163.030197 
	C88.762070,147.588028 88.881042,132.793701 89.000023,117.999390 
	C89.998520,119.127228 91.863113,120.256721 91.860962,121.382645 
	C91.840393,132.145874 91.401848,142.907562 91.304092,153.671707 
	C91.259239,158.611481 91.705658,163.555725 91.879333,168.993652 
z"/>
<path fill="#2A2625" opacity="1.000000" stroke="none" 
	d="
M90.521347,47.999100 
	C89.257156,44.932983 87.992958,41.866863 87.189301,38.343529 
	C89.765625,35.916611 91.881416,33.946915 94.389175,32.006729 
	C102.948387,33.428772 104.832077,37.203693 101.305939,45.111946 
	C99.787834,45.748966 98.269737,46.385990 95.997032,47.011463 
	C93.740509,47.307529 92.238586,47.615150 90.667885,47.899685 
	C90.599106,47.876598 90.521347,47.999100 90.521347,47.999100 
M91.035622,40.423588 
	C91.572853,42.965881 92.514732,45.395592 95.386368,42.753819 
	C96.562286,41.672031 96.708046,39.357803 97.017975,37.551975 
	C97.073242,37.229931 95.255493,36.084541 94.949997,36.288593 
	C93.562683,37.215214 92.407097,38.488762 91.035622,40.423588 
z"/>
<path fill="#3E3C3B" opacity="1.000000" stroke="none" 
	d="
M90.123932,48.090157 
	C90.521347,47.999100 90.599106,47.876598 90.630646,48.273643 
	C92.100754,49.461243 93.539322,50.251797 94.977890,51.042351 
	C98.424507,55.018841 101.871124,58.995335 105.317741,62.971825 
	C104.812012,63.649792 104.306282,64.327759 103.800552,65.005730 
	C98.621513,59.743908 92.898529,55.745735 84.940666,56.939518 
	C84.815857,56.338993 84.691048,55.738464 84.566238,55.137939 
	C86.286331,52.819031 88.006432,50.500122 90.123932,48.090157 
z"/>
<path fill="#1A1615" opacity="1.000000" stroke="none" 
	d="
M88.877869,117.627884 
	C88.881042,132.793701 88.762070,147.588028 88.529099,162.792480 
	C87.941887,162.053360 87.064598,160.906769 87.056938,159.754395 
	C86.963371,145.664719 86.984627,131.574158 87.034698,117.484039 
	C87.037292,116.754288 87.568314,116.026421 88.191376,115.113235 
	C88.604858,115.704651 88.680283,116.480522 88.877869,117.627884 
z"/>
<path fill="#B1AEAD" opacity="1.000000" stroke="none" 
	d="
M93.997200,31.977217 
	C91.881416,33.946915 89.765625,35.916611 87.302460,37.942860 
	C84.467430,37.637932 83.982521,38.968803 84.010529,41.137589 
	C84.075684,46.182281 83.955078,51.229374 83.665154,56.597229 
	C82.841858,55.252113 81.961578,53.619968 81.764687,51.909176 
	C81.544006,49.991581 82.006622,48.004494 82.056877,46.044689 
	C82.164169,41.860901 81.030708,37.290405 85.962570,34.303101 
	C88.484764,32.954594 90.868446,31.968771 93.636032,31.245522 
	C94.019936,31.508095 93.997200,31.977217 93.997200,31.977217 
z"/>
<path fill="#EAE7E7" opacity="1.000000" stroke="none" 
	d="
M94.389175,32.006729 
	C93.997200,31.977217 94.019936,31.508095 94.003265,31.273941 
	C95.780716,31.098309 97.574768,31.200409 99.368950,31.202663 
	C101.046539,31.204771 102.724258,31.100979 104.791222,31.063776 
	C105.227112,32.974613 105.273705,34.865467 105.671127,37.452621 
	C106.409813,40.019188 106.797653,41.889454 107.185493,43.759716 
	C107.185493,43.759716 107.154686,43.794842 107.178604,43.807625 
	C105.495499,44.240910 103.788475,44.661407 101.693695,45.096924 
	C104.832077,37.203693 102.948387,33.428772 94.389175,32.006729 
z"/>
<path fill="#CEC9C9" opacity="1.000000" stroke="none" 
	d="
M215.920502,50.975193 
	C218.135513,45.743977 217.407486,44.173405 210.246094,39.930717 
	C211.790848,38.940014 213.837463,37.289715 214.083481,37.524685 
	C215.637177,39.008591 217.640259,40.793552 217.902863,42.698570 
	C218.465485,46.780216 218.060944,50.995174 217.922867,55.611366 
	C217.202026,55.540665 216.610794,55.014133 215.949661,53.802902 
	C215.893341,52.403862 215.906921,51.689529 215.920502,50.975193 
z"/>
<path fill="#201B1B" opacity="1.000000" stroke="none" 
	d="
M159.967072,111.956444 
	C160.552643,112.163673 161.138199,112.370903 161.883545,112.852905 
	C148.662689,113.195778 135.282059,113.263885 121.437668,113.246315 
	C120.977859,112.958359 120.981796,112.756088 121.466270,112.265244 
	C134.620239,111.969933 147.293655,111.963188 159.967072,111.956444 
z"/>
<path fill="#C7C2C2" opacity="1.000000" stroke="none" 
	d="
M114.996284,48.099464 
	C114.095535,47.834656 113.194794,47.569843 112.207199,47.279499 
	C115.779869,44.404430 116.612991,44.746094 120.841499,50.809315 
	C120.666550,51.410328 120.195480,51.744133 119.314316,51.972778 
	C118.904213,51.867615 118.559105,51.674664 118.559105,51.674664 
	C118.559105,51.674664 118.478195,51.615532 118.412704,51.257195 
	C117.230240,49.965725 116.113266,49.032593 114.996284,48.099464 
z"/>
<path fill="#E5E3E2" opacity="1.000000" stroke="none" 
	d="
M125.263718,127.327408 
	C124.892212,129.113449 124.140160,130.798325 123.150833,132.732300 
	C119.100159,129.533249 121.657806,128.265472 125.263718,127.327408 
z"/>
<path fill="#3B3737" opacity="1.000000" stroke="none" 
	d="
M118.311096,51.976700 
	C118.559105,51.674664 118.904213,51.867615 119.092316,51.928432 
	C118.215309,54.202393 117.150200,56.415539 115.703690,58.691940 
	C113.183113,55.304459 117.252251,54.481041 118.311096,51.976700 
z"/>
<path fill="#393534" opacity="1.000000" stroke="none" 
	d="
M203.176788,54.340488 
	C204.890472,50.278217 207.462875,52.431198 209.938232,53.526402 
	C207.785492,54.125092 205.569855,54.402103 203.176788,54.340488 
z"/>
<path fill="#393534" opacity="1.000000" stroke="none" 
	d="
M209.553238,33.841194 
	C208.010529,36.774422 207.917313,36.750931 204.062881,31.883053 
	C205.735184,32.395939 207.483276,33.219494 209.553238,33.841194 
z"/>
<path fill="#E5E3E2" opacity="1.000000" stroke="none" 
	d="
M72.877968,160.270355 
	C74.242851,160.916458 75.486244,161.832138 77.913635,163.619751 
	C75.090919,163.619751 73.851776,163.619751 72.261581,163.476669 
	C72.192513,162.402374 72.474495,161.471146 72.877968,160.270355 
z"/>
<path fill="#3B3737" opacity="1.000000" stroke="none" 
	d="
M107.457794,55.323723 
	C108.950829,56.077309 110.438637,57.172668 111.963928,58.602432 
	C110.485123,57.846386 108.968842,56.755943 107.457794,55.323723 
z"/>
<path fill="#F8F5F4" opacity="1.000000" stroke="none" 
	d="
M97.238586,174.025375 
	C96.314392,173.543579 95.727341,173.058273 95.064972,172.288849 
	C96.096931,171.339478 97.204201,170.674225 98.655731,170.004486 
	C99.000000,170.000000 98.998825,169.999207 98.998825,169.999207 
	C98.524452,171.340088 98.050087,172.680969 97.238586,174.025375 
z"/>
<path fill="#EAE7E7" opacity="1.000000" stroke="none" 
	d="
M122.733658,150.147217 
	C123.720604,151.099075 124.390312,152.212387 125.062561,153.656952 
	C122.841293,153.726929 119.026741,154.610764 122.733658,150.147217 
z"/>
<path fill="#201B1B" opacity="1.000000" stroke="none" 
	d="
M115.275131,113.712143 
	C114.965157,112.860741 115.033165,112.022484 115.101181,111.184219 
	C116.373299,111.711937 117.645416,112.239662 119.074730,113.109917 
	C118.038986,113.543388 116.846054,113.634331 115.275131,113.712143 
z"/>
<path fill="#EAE7E7" opacity="1.000000" stroke="none" 
	d="
M95.111649,50.729591 
	C93.539322,50.251797 92.100754,49.461243 90.699425,48.296730 
	C92.238586,47.615150 93.740509,47.307529 95.631493,47.079189 
	C95.762169,48.244591 95.503792,49.330715 95.111649,50.729591 
z"/>
<path fill="#E5E3E2" opacity="1.000000" stroke="none" 
	d="
M136.440948,40.009232 
	C136.468552,39.008648 136.843323,38.000546 137.218094,36.992447 
	C138.078873,37.762936 138.939651,38.533424 139.682068,39.683411 
	C138.638504,40.042507 137.713318,40.022110 136.440948,40.009232 
z"/>
<path fill="#F8F5F4" opacity="1.000000" stroke="none" 
	d="
M102.036102,163.054153 
	C103.068207,163.341858 104.081818,164.055740 105.199165,165.063049 
	C104.591377,165.799103 103.879860,166.241745 103.168343,166.684372 
	C102.784767,165.616348 102.401192,164.548340 102.036102,163.054153 
z"/>
<path fill="#DAD4D4" opacity="1.000000" stroke="none" 
	d="
M46.908241,128.771729 
	C47.997234,128.649109 49.094048,128.829178 50.988258,129.140167 
	C49.880733,130.372040 49.221668,131.105118 48.253540,131.874298 
	C47.601673,130.965088 47.258869,130.019760 46.908241,128.771729 
z"/>
<path fill="#393534" opacity="1.000000" stroke="none" 
	d="
M228.962891,32.613068 
	C227.354202,32.686600 225.779007,32.372437 224.099747,31.724285 
	C225.662582,31.668653 227.329468,31.947014 228.962891,32.613068 
z"/>
<path fill="#EEEBEB" opacity="1.000000" stroke="none" 
	d="
M159.887970,44.869888 
	C160.003464,43.791012 160.520157,42.762470 161.328522,41.539570 
	C162.283829,42.949154 164.009109,44.948364 159.887970,44.869888 
z"/>
<path fill="#E4E0DF" opacity="1.000000" stroke="none" 
	d="
M199.278046,46.941406 
	C199.383240,47.417770 199.488434,47.894127 199.500427,48.730965 
	C198.406235,48.919689 197.405212,48.747932 196.216248,48.337296 
	C196.101379,47.874359 196.174469,47.650299 196.754913,47.184975 
	C197.934204,46.942944 198.606125,46.942177 199.278046,46.941406 
z"/>
<path fill="#E5E3E2" opacity="1.000000" stroke="none" 
	d="
M162.961334,117.987373 
	C162.292542,118.373360 161.512131,118.504227 160.333099,118.574516 
	C160.906235,118.253372 161.877991,117.992813 162.961334,117.987373 
z"/>
<path fill="#E2DEDD" opacity="1.000000" stroke="none" 
	d="
M57.956657,37.532990 
	C59.032398,37.130543 60.104305,37.056732 62.479370,36.893185 
	C60.489479,38.098049 59.608635,38.631393 58.390503,39.168633 
	C58.019749,38.735561 57.986282,38.298595 57.956657,37.532990 
z"/>
<path fill="#E5E3E2" opacity="1.000000" stroke="none" 
	d="
M138.835114,117.676605 
	C138.419022,118.104187 137.871094,118.324554 137.127350,118.452072 
	C137.522125,118.062599 138.112701,117.765999 138.835114,117.676605 
z"/>
<path fill="#E2DEDD" opacity="1.000000" stroke="none" 
	d="
M231.098633,160.154205 
	C231.924225,160.376251 232.753845,160.941818 233.665924,161.804520 
	C232.866486,161.567017 231.984573,161.032379 231.098633,160.154205 
z"/>
<path fill="#E5E3E2" opacity="1.000000" stroke="none" 
	d="
M68.353104,138.019409 
	C69.051117,137.770020 70.121704,137.548996 71.079445,137.667206 
	C70.219627,138.020203 69.472649,138.033981 68.353104,138.019409 
z"/>
<path fill="#393534" opacity="1.000000" stroke="none" 
	d="
M133.329773,63.269447 
	C133.842407,62.996181 134.469559,62.995914 135.410370,62.995506 
	C135.633972,63.556679 135.543930,64.118004 135.453888,64.679321 
	C134.784012,64.300362 134.114166,63.921410 133.329773,63.269447 
z"/>
<path fill="#393534" opacity="1.000000" stroke="none" 
	d="
M215.602478,51.029781 
	C215.906921,51.689529 215.893341,52.403862 215.921539,53.473106 
	C215.502289,53.548515 215.041229,53.269020 214.301819,53.028442 
	C214.443787,52.406364 214.864120,51.745369 215.602478,51.029781 
z"/>
<path fill="#393534" opacity="1.000000" stroke="none" 
	d="
M224.049438,63.257648 
	C224.436661,63.006161 224.919037,62.995590 225.763123,62.975170 
	C226.113037,63.386044 226.101212,63.806770 226.089386,64.227493 
	C225.441116,63.984520 224.792831,63.741547 224.049438,63.257648 
z"/>
<path fill="#EEEBEB" opacity="1.000000" stroke="none" 
	d="
M159.319336,55.936054 
	C159.179779,56.554790 158.767273,57.163361 158.354767,57.771931 
	C157.991959,57.359978 157.629150,56.948021 157.337433,56.246445 
	C157.954468,55.946510 158.500443,55.936199 159.319336,55.936054 
z"/>
<path fill="#EAE7E7" opacity="1.000000" stroke="none" 
	d="
M105.702942,50.041103 
	C106.083275,50.443115 106.164207,50.885590 106.158447,51.658112 
	C105.542191,51.769192 105.012619,51.550224 104.483047,51.331257 
	C104.789879,50.914692 105.096710,50.498127 105.702942,50.041103 
z"/>
<path fill="#EEEBEB" opacity="1.000000" stroke="none" 
	d="
M157.531799,53.983208 
	C157.190674,53.563339 157.120407,53.102318 157.169174,52.307388 
	C157.459702,52.629669 157.631195,53.285858 157.531799,53.983208 
z"/>
<path fill="#C7C2C2" opacity="1.000000" stroke="none" 
	d="
M151.981583,37.410278 
	C152.471756,37.636204 152.995605,38.146992 153.269882,38.830688 
	C152.685287,38.567440 152.350281,38.131287 151.981583,37.410278 
z"/>
<path fill="#DAD4D4" opacity="1.000000" stroke="none" 
	d="
M135.071686,135.257660 
	C134.500610,135.634430 133.914948,135.677628 133.329300,135.720840 
	C133.587128,135.097122 133.844955,134.473389 134.436096,133.735199 
	C134.865311,134.055191 134.961212,134.489639 135.071686,135.257660 
z"/>
<path fill="#B1AEAD" opacity="1.000000" stroke="none" 
	d="
M83.581848,61.827724 
	C83.169800,61.344204 82.959755,60.738331 83.102394,60.097446 
	C83.564674,60.610081 83.674263,61.157726 83.581848,61.827724 
z"/>
<path fill="#E5E3E2" opacity="1.000000" stroke="none" 
	d="
M154.881683,123.049866 
	C154.523041,123.249496 153.791901,123.420876 153.038818,123.292480 
	C153.514313,123.002350 154.011734,123.011978 154.881683,123.049866 
z"/>
<path fill="#E5E3E2" opacity="1.000000" stroke="none" 
	d="
M158.035995,119.169769 
	C157.873825,119.845093 157.322113,120.485458 156.485703,121.271233 
	C156.682816,120.656029 157.164627,119.895416 158.035995,119.169769 
z"/>
<path fill="#E5E3E2" opacity="1.000000" stroke="none" 
	d="
M150.986206,120.550186 
	C150.341415,120.499458 149.638901,120.110123 148.803619,119.440849 
	C149.423386,119.511131 150.175919,119.861351 150.986206,120.550186 
z"/>
<path fill="#393534" opacity="1.000000" stroke="none" 
	d="
M187.237885,60.314720 
	C187.764954,60.616653 188.322678,61.234287 188.855911,62.206505 
	C188.310440,61.917534 187.789490,61.273979 187.237885,60.314720 
z"/>
<path fill="#D4D0CF" opacity="1.000000" stroke="none" 
	d="
M226.958160,103.588120 
	C226.268127,103.621559 225.517380,103.295822 224.596558,102.704308 
	C225.250122,102.702003 226.073807,102.965477 226.958160,103.588120 
z"/>
<path fill="#D4D0CF" opacity="1.000000" stroke="none" 
	d="
M214.001099,103.204483 
	C213.899445,103.913437 213.408844,104.578468 212.633652,105.376953 
	C212.770096,104.727127 213.191132,103.943848 214.001099,103.204483 
z"/>
<path fill="#D4D0CF" opacity="1.000000" stroke="none" 
	d="
M229.288147,103.939743 
	C229.575668,104.483177 229.503296,105.053917 229.430939,105.624649 
	C228.878342,105.384926 228.325745,105.145203 227.652283,104.615128 
	C227.997055,104.205544 228.462662,104.086296 229.288147,103.939743 
z"/>
<path fill="#EAE7E7" opacity="1.000000" stroke="none" 
	d="
M139.795715,30.937757 
	C139.392868,31.011581 138.990005,31.085407 138.292542,31.071981 
	C138.390320,30.333263 138.782715,29.681797 139.495026,29.315468 
	C139.808548,30.046322 139.802139,30.492041 139.795715,30.937757 
z"/>
<path fill="#F8F5F4" opacity="1.000000" stroke="none" 
	d="
M94.243347,157.011520 
	C94.409866,156.901382 94.577911,156.955383 94.745964,157.009384 
	C94.578934,157.064819 94.411911,157.120239 94.243347,157.011520 
z"/>
<path fill="#393534" opacity="1.000000" stroke="none" 
	d="
M140.130417,30.748325 
	C139.802139,30.492041 139.808548,30.046322 139.796967,29.266781 
	C140.117813,28.922678 140.456650,28.912403 140.993042,29.062996 
	C140.948792,29.668873 140.706955,30.113882 140.130417,30.748325 
z"/>
<path fill="#DAD4D4" opacity="1.000000" stroke="none" 
	d="
M40.843307,136.065643 
	C40.900970,136.302017 40.646671,136.511230 40.206779,136.882355 
	C40.199570,136.719131 40.369617,136.383850 40.843307,136.065643 
z"/>
<path fill="#F8F5F4" opacity="1.000000" stroke="none" 
	d="
M99.000427,170.000610 
	C99.092239,169.964874 99.183617,169.928543 99.136909,169.945709 
	C98.998825,169.999207 99.000000,170.000000 99.000427,170.000610 
z"/>
<path fill="#F8F5F4" opacity="1.000000" stroke="none" 
	d="
M89.294098,114.897095 
	C89.177773,114.654457 89.274368,114.279236 89.687515,113.906540 
	C89.838387,114.194214 89.672699,114.479362 89.294098,114.897095 
z"/>
<path fill="#F8F5F4" opacity="1.000000" stroke="none" 
	d="
M96.101463,114.136139 
	C96.370148,114.040619 96.746529,114.192116 97.095291,114.674271 
	C96.781502,114.797668 96.495331,114.590408 96.101463,114.136139 
z"/>
<path fill="#F1EDEC" opacity="1.000000" stroke="none" 
	d="
M52.011791,121.062683 
	C50.836849,120.925484 50.056557,120.826225 49.212475,120.718849 
	C52.916210,112.112915 59.567898,110.572586 67.129684,116.374763 
	C62.548763,122.674347 60.789684,123.238968 52.011791,121.062683 
z"/>
<path fill="#E2DEDD" opacity="1.000000" stroke="none" 
	d="
M81.703430,179.309113 
	C77.669815,184.553589 75.411705,185.076340 70.895088,181.889862 
	C72.874985,177.914917 76.479576,176.737289 80.479576,176.460587 
	C80.894974,176.431854 81.427536,178.096817 81.703430,179.309113 
z"/>
<path fill="#373333" opacity="1.000000" stroke="none" 
	d="
M159.671463,111.668945 
	C147.293655,111.963188 134.620239,111.969933 121.480141,111.962090 
	C121.581230,111.649605 122.150253,111.089661 122.716591,111.092377 
	C134.936523,111.150887 147.156158,111.272232 159.671463,111.668945 
z"/>
<path fill="#1A1615" opacity="1.000000" stroke="none" 
	d="
M88.175972,164.932602 
	C88.536034,165.391235 88.581337,166.043686 88.557564,167.017059 
	C88.140022,167.571991 87.791550,167.806015 87.443077,168.040039 
	C87.582458,167.068832 87.721840,166.097610 88.175972,164.932602 
z"/>
<path fill="#E4E0DF" opacity="1.000000" stroke="none" 
	d="
M193.998642,40.003830 
	C189.147034,41.047009 184.295441,42.090191 179.292389,43.165939 
	C179.292389,41.787121 179.292389,39.728897 179.292389,36.969364 
	C183.942535,36.969364 188.533493,36.969364 193.582611,37.438656 
	C194.026733,38.606575 194.012680,39.305202 193.998642,40.003830 
z"/>
<path fill="#FDFDFD" opacity="1.000000" stroke="none" 
	d="
M194.055878,40.363567 
	C194.012680,39.305202 194.026733,38.606575 194.038483,37.558098 
	C196.061188,37.148899 198.086182,37.089546 200.600449,37.492569 
	C201.519577,39.186619 201.949432,40.418293 202.379288,41.649963 
	C201.439865,43.194859 200.500443,44.739754 199.419525,46.613029 
	C198.606125,46.942177 197.934204,46.942944 197.009613,46.939796 
	C195.875641,44.865025 194.994370,42.794167 194.055878,40.363567 
z"/>
<path fill="#EAE7E7" opacity="1.000000" stroke="none" 
	d="
M111.972534,37.234009 
	C116.286293,37.131653 120.600502,36.942047 124.913620,36.964130 
	C127.037582,36.975006 128.654327,37.539108 125.012436,39.559822 
	C123.893738,40.183582 123.464287,40.636227 123.034836,41.088875 
	C121.355644,40.529411 119.676460,39.969955 117.261414,39.270508 
	C115.117729,39.255840 113.709915,39.381157 112.208939,39.134007 
	C112.068031,38.252361 112.020287,37.743183 111.972534,37.234009 
z"/>
<path fill="#FDFDFD" opacity="1.000000" stroke="none" 
	d="
M111.553070,37.154449 
	C112.020287,37.743183 112.068031,38.252361 112.173836,39.272476 
	C112.231895,39.783421 112.235794,40.069118 112.235794,40.069115 
	C110.734924,41.284286 109.234055,42.499458 107.459335,43.737171 
	C106.797653,41.889454 106.409813,40.019188 106.025475,37.688251 
	C107.730522,37.176685 109.432060,37.125790 111.553070,37.154449 
z"/>
<path fill="#E4E0DF" opacity="1.000000" stroke="none" 
	d="
M202.782288,41.620804 
	C201.949432,40.418293 201.519577,39.186619 201.028275,37.570190 
	C202.847046,37.874607 204.727280,38.563782 206.607498,39.252953 
	C206.495300,39.737331 206.383102,40.221706 206.270905,40.706081 
	C205.242355,41.001266 204.213821,41.296455 202.782288,41.620804 
z"/>
<path fill="#3B3737" opacity="1.000000" stroke="none" 
	d="
M115.001587,48.500015 
	C116.113266,49.032593 117.230240,49.965725 118.406311,51.207497 
	C115.917305,52.489189 114.885490,51.457314 115.001587,48.500015 
z"/>
<path fill="#393534" opacity="1.000000" stroke="none" 
	d="
M112.594414,40.104691 
	C112.235794,40.069118 112.231895,39.783421 112.266998,39.644951 
	C113.709915,39.381157 115.117729,39.255840 116.853256,39.259682 
	C115.771660,39.639313 114.362350,39.889790 112.594414,40.104691 
z"/>
<path fill="#393534" opacity="1.000000" stroke="none" 
	d="
M123.231369,41.307243 
	C123.464287,40.636227 123.893738,40.183582 124.658173,39.736748 
	C124.471397,40.336910 123.949654,40.931263 123.231369,41.307243 
z"/>
<path fill="#393534" opacity="1.000000" stroke="none" 
	d="
M154.309967,52.076149 
	C154.278488,51.529381 154.405411,51.141708 154.532333,50.754036 
	C154.638138,50.860035 154.849503,50.989597 154.831970,51.068081 
	C154.743515,51.464447 154.595474,51.847511 154.309967,52.076149 
z"/>
<path fill="#393534" opacity="1.000000" stroke="none" 
	d="
M202.883392,48.702873 
	C202.593903,48.784904 202.210327,48.695202 202.126862,48.485836 
	C202.059311,48.316452 202.353043,48.003002 202.486511,47.753452 
	C202.630661,47.995445 202.774811,48.237442 202.883392,48.702873 
z"/>
<path fill="#DAD4D4" opacity="1.000000" stroke="none" 
	d="
M61.251457,48.796146 
	C62.201061,50.925701 62.739601,53.126682 63.278137,55.327663 
	C62.894096,55.569084 62.510052,55.810509 62.126011,56.051929 
	C60.304626,54.632744 58.483246,53.213558 55.912010,51.210106 
	C58.031902,50.202488 59.436146,49.535030 61.251457,48.796146 
z"/>
<path fill="#C7C2C2" opacity="1.000000" stroke="none" 
	d="
M91.101868,40.030533 
	C92.407097,38.488762 93.562683,37.215214 94.949997,36.288593 
	C95.255493,36.084541 97.073242,37.229931 97.017975,37.551975 
	C96.708046,39.357803 96.562286,41.672031 95.386368,42.753819 
	C92.514732,45.395592 91.572853,42.965881 91.101868,40.030533 
z"/>
</svg>